<svg xmlns="http://www.w3.org/2000/svg" viewBox="0 0 640 512"><path fill="#fff" d="M544 192h-40l-40-80c-8-16-25-28-43-28H219c-18 0-35 12-43 28l-40 80H96c-53 0-96 43-96 96v96c0 17.7 14.3 32 32 32h32c0 35.3 28.7 64 64 64s64-28.7 64-64h256c0 35.3 28.7 64 64 64s64-28.7 64-64h32c17.7 0 32-14.3 32-32v-96c0-53-43-96-96-96zM128 432c-17.7 0-32-14.3-32-32s14.3-32 32-32 32 14.3 32 32-14.3 32-32 32zm80-176l24-48h176l24 48H208zm304 176c-17.7 0-32-14.3-32-32s14.3-32 32-32 32 14.3 32 32-14.3 32-32 32z"/></svg>