<svg xmlns="http://www.w3.org/2000/svg" viewBox="0 0 640 512"><path fill="#fff" d="M64 96h192v32H64V96zm256 0h256v32H320V96zM272 160h96v32h-96v-32zm-16 64h128v128H256V224zm-192 64h160v32H64v-32zm448 0h64v32h-64v-32zM128 352c-35.3 0-64 28.7-64 64s28.7 64 64 64 64-28.7 64-64-28.7-64-64-64zm0 96c-17.7 0-32-14.3-32-32s14.3-32 32-32 32 14.3 32 32-14.3 32-32 32zm384-96c-35.3 0-64 28.7-64 64s28.7 64 64 64 64-28.7 64-64-28.7-64-64-64zm0 96c-17.7 0-32-14.3-32-32s14.3-32 32-32 32 14.3 32 32-14.3 32-32 32z"/></svg>